<svg height="511pt" viewBox="-3 1 511 511.99997" width="511pt" xmlns="http://www.w3.org/2000/svg"><path d="m276.808594 277.996094c-7.535156 14.753906-8.878906 31.558594-3.773438 47.320312 6.929688 21.410156 24.96875 37.414063 47.078125 41.765625.488281.097657.980469.144531 1.46875.144531 2.089844 0 4.113281-.863281 5.570313-2.421874 5.390625-5.785157 12.234375-10.132813 19.785156-12.578126 7.554688-2.445312 15.648438-2.929687 23.40625-1.402343 2.582031.503906 5.246094-.355469 7.039062-2.28125 15.363282-16.484375 20.605469-40.019531 13.675782-61.429688-10.535156-32.539062-45.578125-50.441406-78.113282-39.910156-15.765624 5.105469-28.597656 16.039063-36.136718 30.792969zm40.824218-16.308594c4.773438-1.542969 9.613282-2.277344 14.378907-2.277344 19.75 0 38.15625 12.613282 44.558593 32.390625 4.824219 14.902344 1.832032 31.171875-7.765624 43.371094-8.894532-1.078125-17.988282-.207031-26.554688 2.566406-8.566406 2.773438-16.445312 7.398438-23.023438 13.484375-14.925781-4.261718-26.886718-15.695312-31.707031-30.59375-3.851562-11.894531-2.839843-24.574218 2.847657-35.707031s15.371093-19.382813 27.265624-23.234375zm0 0"/><path d="m336.066406 332.390625c14.34375 0 26.011719-11.667969 26.011719-26.007813 0-14.34375-11.667969-26.011718-26.011719-26.011718-14.339844 0-26.007812 11.667968-26.007812 26.011718 0 14.339844 11.667968 26.007813 26.007812 26.007813zm0-36.792969c5.949219 0 10.785156 4.835938 10.785156 10.785156 0 5.945313-4.835937 10.78125-10.785156 10.78125-5.945312 0-10.78125-4.835937-10.78125-10.78125 0-5.949218 4.835938-10.785156 10.78125-10.785156zm0 0"/><path d="m192.765625 247.203125c-32.535156-10.53125-67.578125 7.371094-78.109375 39.910156-6.933594 21.40625-1.691406 44.945313 13.671875 61.429688 1.792969 1.925781 4.457031 2.785156 7.039063 2.28125 7.761718-1.53125 15.851562-1.042969 23.40625 1.402343 7.550781 2.445313 14.394531 6.792969 19.785156 12.578126 1.453125 1.558593 3.480468 2.421874 5.570312 2.421874.484375 0 .980469-.046874 1.46875-.144531 22.109375-4.351562 40.148438-20.355469 47.078125-41.765625 5.101563-15.761718 3.761719-32.566406-3.777343-47.320312-7.535157-14.753906-20.367188-25.6875-36.132813-30.792969zm25.425781 73.425781c-4.824218 14.898438-16.78125 26.332032-31.707031 30.59375-6.578125-6.085937-14.457031-10.710937-23.023437-13.484375-6.191407-2.003906-12.65625-3.011719-19.125-3.011719-2.480469 0-4.964844.148438-7.433594.445313-9.59375-12.199219-12.585938-28.46875-7.761719-43.371094 7.945313-24.550781 34.386719-38.058593 58.9375-30.109375 11.894531 3.847656 21.578125 12.097656 27.265625 23.230469s6.699219 23.8125 2.847656 35.707031zm0 0"/><path d="m169.640625 280.371094c-14.339844 0-26.007813 11.667968-26.007813 26.011718 0 14.339844 11.667969 26.007813 26.007813 26.007813 14.34375 0 26.011719-11.667969 26.011719-26.007813 0-14.34375-11.667969-26.011718-26.011719-26.011718zm0 36.792968c-5.945313 0-10.78125-4.835937-10.78125-10.78125 0-5.949218 4.835937-10.785156 10.78125-10.785156 5.949219 0 10.785156 4.835938 10.785156 10.785156 0 5.945313-4.835937 10.78125-10.785156 10.78125zm0 0"/><path d="m436.957031 348.089844c38.175781-3.242188 68.253907-35.328125 68.253907-74.328125 0-38.574219-29.425782-70.40625-67.007813-74.230469v-61.964844c0-4.203125-3.40625-7.613281-7.613281-7.613281-4.203125 0-7.609375 3.410156-7.609375 7.613281v103.429688l-19.679688-9.054688v-145.507812c0-4.203125-3.410156-7.613282-7.613281-7.613282h-285.664062c-4.203126 0-7.613282 3.410157-7.613282 7.613282v145.503906l-19.679687 9.058594v-172.367188c0-29.445312 23.957031-53.402344 53.40625-53.402344h233.4375c29.449219 0 53.40625 23.957032 53.40625 53.402344v43.5625c0 4.203125 3.40625 7.609375 7.609375 7.609375 4.207031 0 7.613281-3.40625 7.613281-7.609375v-43.5625c0-37.839844-30.785156-68.628906-68.628906-68.628906h-233.4375c-37.84375 0-68.628907 30.789062-68.628907 68.628906v130.898438c-37.585937 3.828125-67.007812 35.660156-67.007812 74.234375 0 38.988281 30.0625 71.066406 68.222656 74.328125 2.375 20.804687 8.234375 40.863281 17.515625 59.847656 1.320313 2.699219 4.027344 4.269531 6.84375 4.269531 1.121094 0 2.261719-.246093 3.335938-.773437 3.777343-1.847656 5.34375-6.40625 3.496093-10.183594-11.402343-23.328125-17.183593-48.429688-17.183593-74.597656v-68.894532l30.476562-14.027343c2.699219-1.242188 4.429688-3.941407 4.429688-6.914063v-89.300781h30.425781v11.660156c0 4.207031 3.40625 7.613281 7.613281 7.613281 4.203125 0 7.609375-3.40625 7.609375-7.613281v-11.660156h49.5625v11.660156c0 4.207031 3.410156 7.613281 7.613282 7.613281 4.203124 0 7.613281-3.40625 7.613281-7.613281v-11.660156h49.5625v11.660156c0 4.207031 3.40625 7.613281 7.609375 7.613281 4.207031 0 7.613281-3.40625 7.613281-7.613281v-11.660156h49.5625v11.660156c0 4.207031 3.410156 7.613281 7.613281 7.613281s7.613282-3.40625 7.613282-7.613281v-11.660156h30.425781v89.300781c0 2.972656 1.730469 5.671875 4.429687 6.914063l30.472656 14.027343v68.894532c0 93.804687-76.316406 170.121094-170.121093 170.121094-55.292969 0-107.332031-27.027344-139.207031-72.304688-2.421876-3.4375-7.167969-4.261719-10.609376-1.84375-3.4375 2.421875-4.261718 7.171875-1.839843 10.609375 10.792969 15.332031 23.710937 28.738281 38.199219 39.941406h-34.976563v-15.984375c0-4.203125-3.40625-7.613281-7.613281-7.613281-4.203125 0-7.609375 3.410156-7.609375 7.613281v23.566406c0 .011719-.003907.019532-.003907.03125 0 .007813.003907.015626.003907.027344v23.570313c0 4.203125 3.40625 7.613281 7.609375 7.613281 4.207031 0 7.613281-3.410156 7.613281-7.613281v-15.984375h58.011719c27.28125 15.25 58.347656 23.597656 90.421875 23.597656 32.8125 0 63.652343-8.582031 90.414062-23.597656h58.019531v15.984375c0 4.203125 3.410157 7.613281 7.613282 7.613281s7.613281-3.410156 7.613281-7.613281v-23.53125c0-.023438.003906-.042969.003906-.066407 0-.023437-.003906-.046874-.003906-.070312v-23.527344c0-4.203125-3.410156-7.609375-7.613281-7.609375s-7.613282 3.40625-7.613282 7.609375v15.984375h-35.0625c38.429688-29.800781 64.859376-74.351562 70.730469-125.085937zm-421.230469-74.328125c0-30.167969 22.613282-55.140625 51.78125-58.890625v37.851562c-.972656-.546875-1.902343-.988281-2.757812-1.34375-10.589844-4.386718-24.078125-1.359375-32.796875 7.363282-2.972656 2.972656-2.972656 7.792968 0 10.765624 2.972656 2.972657 7.792969 2.972657 10.765625 0 4.414062-4.417968 11.226562-6.125 16.207031-4.0625 5.535157 2.292969 8.582031 9.238282 8.582031 19.558594v41.648438c0 2.011718.039063 4.011718.101563 6.011718-29.214844-3.703124-51.882813-28.699218-51.882813-58.902343zm341.921876-141.472657v-11.664062c0-4.203125-3.410157-7.609375-7.613282-7.609375s-7.613281 3.40625-7.613281 7.609375v11.664062h-49.5625v-11.664062c0-4.203125-3.40625-7.609375-7.613281-7.609375-4.203125 0-7.609375 3.40625-7.609375 7.609375v11.664062h-49.5625v-11.664062c0-4.203125-3.410157-7.609375-7.613281-7.609375-4.203126 0-7.613282 3.40625-7.613282 7.609375v11.664062h-49.5625v-11.664062c0-4.203125-3.40625-7.609375-7.609375-7.609375-4.207031 0-7.613281 3.40625-7.613281 7.609375v11.664062h-30.425781v-38.242187h270.4375v38.242187zm132.335937 141.472657c0 30.207031-22.671875 55.199219-51.890625 58.902343.066406-1.996093.109375-4 .109375-6.011718v-41.648438c0-10.320312 3.046875-17.265625 8.582031-19.558594 4.976563-2.0625 11.792969-.351562 16.207032 4.0625 2.972656 2.972657 7.792968 2.972657 10.765624 0 2.972657-2.972656 2.972657-7.792968 0-10.765624-8.722656-8.722657-22.207031-11.75-32.800781-7.363282-.855469.355469-1.785156.796875-2.753906 1.34375v-37.851562c29.164063 3.753906 51.78125 28.722656 51.78125 58.890625zm0 0"/><path d="m195.328125 382.699219c-2.972656-2.972657-7.792969-2.972657-10.765625 0-2.972656 2.976562-2.972656 7.792969 0 10.769531 8.398438 8.398438 8.398438 22.066406 0 30.464844-2.972656 2.972656-2.972656 7.792968 0 10.765625 1.484375 1.488281 3.433594 2.230469 5.382812 2.230469 1.949219 0 3.894532-.742188 5.382813-2.230469 5.222656-5.222657 8.535156-11.644531 9.949219-18.386719h95.152344c1.417968 6.742188 4.726562 13.164062 9.953124 18.386719 1.484376 1.488281 3.433594 2.230469 5.382813 2.230469 1.945313 0 3.894531-.742188 5.382813-2.230469 2.972656-2.972657 2.972656-7.792969 0-10.765625-8.402344-8.398438-8.402344-22.066406 0-30.464844 2.972656-2.976562 2.972656-7.792969 0-10.769531-2.972657-2.972657-7.792969-2.972657-10.765626 0-5.226562 5.226562-8.535156 11.648437-9.953124 18.386719h-95.152344c-1.414063-6.742188-4.726563-13.160157-9.949219-18.386719zm0 0"/><path d="m325.980469 172.003906c-2.972657-2.972656-7.792969-2.972656-10.765625 0l-24.898438 24.894532c-2.175781 2.179687-2.828125 5.453124-1.648437 8.296874 1.179687 2.84375 3.953125 4.699219 7.03125 4.699219h17.101562l-18.667969 20.144531c-2.859374 3.082032-2.675781 7.898438.410157 10.757813 1.460937 1.355469 3.320312 2.027344 5.171875 2.027344 2.042968 0 4.082031-.816407 5.585937-2.4375l30.515625-32.929688c2.058594-2.21875 2.605469-5.445312 1.394532-8.21875-1.210938-2.773437-3.949219-4.566406-6.976563-4.566406h-16.15625l11.902344-11.902344c2.972656-2.972656 2.972656-7.792969 0-10.765625zm0 0"/></svg>