<?xml version="1.0" encoding="iso-8859-1"?>
<!-- Generator: Adobe Illustrator 19.0.0, SVG Export Plug-In . SVG Version: 6.00 Build 0)  -->
<svg version="1.1" id="Capa_1" xmlns="http://www.w3.org/2000/svg" xmlns:xlink="http://www.w3.org/1999/xlink" x="0px" y="0px"
	 viewBox="0 0 512 512" style="enable-background:new 0 0 512 512;" xml:space="preserve">
<g>
	<g>
		<path d="M286,275h-60c-4.143,0-7.5,3.357-7.5,7.5s3.357,7.5,7.5,7.5h60c4.143,0,7.5-3.357,7.5-7.5S290.143,275,286,275z"/>
	</g>
</g>
<g>
	<g>
		<path d="M398.5,249.402c22.64-3.607,40-23.263,40-46.902s-17.36-43.295-40-46.902V142.5C398.5,63.925,334.575,0,256,0
			S113.5,63.925,113.5,142.5v13.098c-22.64,3.607-40,23.263-40,46.902c0,23.639,17.36,43.295,40,46.902v3.098
			c0,18.705,4.05,36.481,11.317,52.5H111.5v-7.5c0-4.143-3.357-7.5-7.5-7.5s-7.5,3.357-7.5,7.5v30c0,4.143,3.357,7.5,7.5,7.5
			s7.5-3.357,7.5-7.5V320h21.383c22.559,36.004,62.586,60,108.117,60h30c45.532,0,85.558-23.996,108.117-60H400.5v7.5
			c0,4.143,3.357,7.5,7.5,7.5s7.5-3.357,7.5-7.5v-30c0-4.143-3.357-7.5-7.5-7.5s-7.5,3.357-7.5,7.5v7.5h-13.317
			c7.267-16.019,11.317-33.795,11.317-52.5V249.402z M256,15c12.266,0,24.131,1.746,35.365,4.994C286.186,34.801,272.198,45,256,45
			s-30.186-10.199-35.365-25.006C231.869,16.746,243.734,15,256,15z M206.494,25.005C213.754,45.728,233.331,60,256,60
			s42.246-14.272,49.506-34.995C336.728,38.209,361.63,63.512,374.316,95H353.5v-7.5c0-4.143-3.357-7.5-7.5-7.5s-7.5,3.357-7.5,7.5
			V95h-30v-7.5c0-4.143-3.357-7.5-7.5-7.5s-7.5,3.357-7.5,7.5V95h-30v-7.5c0-4.143-3.357-7.5-7.5-7.5s-7.5,3.357-7.5,7.5V95h-30
			v-7.5c0-4.143-3.357-7.5-7.5-7.5s-7.5,3.357-7.5,7.5V95h-30v-7.5c0-4.143-3.357-7.5-7.5-7.5s-7.5,3.357-7.5,7.5V95h-20.816
			C150.37,63.512,175.272,38.209,206.494,25.005z M391.001,220c-4.143,0-7.5,3.357-7.5,7.5v25c0,62.032-50.468,112.5-112.5,112.5
			h-30c-62.032,0-112.5-50.468-112.5-112.5v-25c0-4.143-3.357-7.5-7.5-7.5c-4.143,0-7.5,3.357-7.5,7.5v6.617
			c-14.315-3.396-25-16.278-25-31.617s10.684-28.221,24.999-31.617V197.5c0,4.143,3.357,7.5,7.5,7.5s7.5-3.357,7.5-7.5v-55
			c0-11.229,1.465-22.12,4.204-32.5h246.593c2.738,10.38,4.204,21.271,4.204,32.5v55c0,4.143,3.357,7.5,7.5,7.5s7.5-3.357,7.5-7.5
			v-26.617c14.315,3.396,25,16.278,25,31.617s-10.685,28.221-25,31.617V227.5C398.501,223.357,395.144,220,391.001,220z"/>
	</g>
</g>
<g>
	<g>
		<path d="M494.47,427.23c-11.219-12.366-26.46-20.129-42.917-21.858c-0.259-0.027-0.519-0.041-0.777-0.041l-57.763-0.05
			C392.371,405.103,391.698,405,391,405c-0.693,0-1.362,0.102-1.999,0.278l-29.597-0.026c-1.256-0.329-2.574-0.332-3.821-0.003
			l-200.065-0.173c-0.68-0.093-1.37-0.096-2.052-0.002l-31.646-0.027c-0.27-0.029-0.543-0.047-0.821-0.047
			c-0.274,0-0.545,0.017-0.812,0.045L67.5,405C30.28,405,0,435.28,0,472.5v32c0,4.143,3.357,7.5,7.5,7.5h497
			c4.143,0,7.5-3.357,7.5-7.5v-32C512,455.768,505.774,439.69,494.47,427.23z M339.028,420.235C316.048,439.952,286.637,451,256,451
			c-30.712,0-60.192-11.101-83.197-30.909L339.028,420.235z M497,497H15v-24.5c0-28.948,23.552-52.5,52.493-52.5l46.007,0.04v54.46
			c0,4.143,3.357,7.5,7.5,7.5s7.5-3.357,7.5-7.5v-54.447l22.729,0.02C178.19,449.303,216.169,466,256,466
			c39.75,0,77.657-16.627,104.607-45.747l22.893,0.02V474.5c0,4.143,3.357,7.5,7.5,7.5s7.5-3.357,7.5-7.5v-54.214l51.859,0.045
			C476.543,423.278,497,446.12,497,472.5V497z"/>
	</g>
</g>
<g>
	<g>
		<path d="M181,155c-20.678,0-37.5,16.822-37.5,37.5S160.322,230,181,230s37.5-16.822,37.5-37.5S201.678,155,181,155z M181,215
			c-12.406,0-22.5-10.094-22.5-22.5S168.594,170,181,170s22.5,10.094,22.5,22.5S193.406,215,181,215z"/>
	</g>
</g>
<g>
	<g>
		<circle cx="181" cy="192.5" r="7.5"/>
	</g>
</g>
<g>
	<g>
		<path d="M331,155c-20.678,0-37.5,16.822-37.5,37.5S310.322,230,331,230c20.678,0,37.5-16.822,37.5-37.5S351.678,155,331,155z
			 M331,215c-12.406,0-22.5-10.094-22.5-22.5S318.594,170,331,170s22.5,10.094,22.5,22.5S343.406,215,331,215z"/>
	</g>
</g>
<g>
	<g>
		<circle cx="331" cy="192.5" r="7.5"/>
	</g>
</g>
<g>
</g>
<g>
</g>
<g>
</g>
<g>
</g>
<g>
</g>
<g>
</g>
<g>
</g>
<g>
</g>
<g>
</g>
<g>
</g>
<g>
</g>
<g>
</g>
<g>
</g>
<g>
</g>
<g>
</g>
</svg>
