<svg height="512pt" viewBox="0 -39 512.00002 512" width="512pt" xmlns="http://www.w3.org/2000/svg"><path d="m504.394531 302.296875c4.203125 0 7.605469-3.40625 7.605469-7.605469v-247.242187c0-26.164063-21.285156-47.449219-47.449219-47.449219h-417.101562c-26.164063 0-47.449219 21.285156-47.449219 47.449219v338.363281c0 26.164062 21.285156 47.449219 47.449219 47.449219h417.101562c26.164063 0 47.449219-21.285157 47.449219-47.449219v-65.773438c0-4.199218-3.402344-7.601562-7.605469-7.601562-4.199219 0-7.601562 3.402344-7.601562 7.601562v65.773438c0 17.777344-14.464844 32.242188-32.242188 32.242188h-417.101562c-17.777344 0-32.242188-14.464844-32.242188-32.242188v-338.363281c0-17.777344 14.464844-32.242188 32.242188-32.242188h417.101562c17.777344 0 32.242188 14.464844 32.242188 32.242188v247.242187c0 4.199219 3.402343 7.605469 7.601562 7.605469zm0 0"/><path d="m105.449219 161.984375c36.054687 0 65.390625-29.335937 65.390625-65.394531 0-36.054688-29.335938-65.390625-65.390625-65.390625-36.054688 0-65.390625 29.335937-65.390625 65.390625 0 36.058594 29.332031 65.394531 65.390625 65.394531zm0-115.578125c27.671875 0 50.183593 22.511719 50.183593 50.183594s-22.511718 50.183594-50.183593 50.183594-50.183594-22.511719-50.183594-50.183594c0-27.667969 22.511719-50.183594 50.183594-50.183594zm0 0"/><path d="m321.390625 96.589844c0-36.054688-29.335937-65.390625-65.390625-65.390625s-65.390625 29.335937-65.390625 65.390625c0 36.058594 29.335937 65.394531 65.390625 65.394531s65.390625-29.335937 65.390625-65.394531zm-115.574219 0c0-27.667969 22.511719-50.179688 50.183594-50.179688s50.183594 22.511719 50.183594 50.179688c0 27.671875-22.511719 50.183594-50.183594 50.183594s-50.183594-22.511719-50.183594-50.183594zm0 0"/><path d="m471.941406 96.589844c0-36.054688-29.335937-65.390625-65.390625-65.390625-36.054687 0-65.390625 29.335937-65.390625 65.390625 0 36.058594 29.335938 65.394531 65.390625 65.394531 36.054688 0 65.390625-29.335937 65.390625-65.394531zm-115.574218 0c0-27.667969 22.511718-50.179688 50.183593-50.179688s50.183594 22.511719 50.183594 50.179688c0 27.671875-22.511719 50.183594-50.183594 50.183594s-50.183593-22.511719-50.183593-50.183594zm0 0"/><path d="m40.058594 336.667969c0 36.058593 29.335937 65.394531 65.390625 65.394531 36.054687 0 65.390625-29.335938 65.390625-65.394531 0-36.054688-29.335938-65.390625-65.390625-65.390625-36.058594 0-65.390625 29.335937-65.390625 65.390625zm115.574218 0c0 27.671875-22.511718 50.183593-50.183593 50.183593s-50.183594-22.511718-50.183594-50.183593c0-27.667969 22.511719-50.179688 50.183594-50.179688s50.183593 22.511719 50.183593 50.179688zm0 0"/><path d="m190.609375 336.667969c0 36.058593 29.335937 65.394531 65.390625 65.394531s65.390625-29.335938 65.390625-65.394531c0-36.054688-29.335937-65.390625-65.390625-65.390625s-65.390625 29.335937-65.390625 65.390625zm115.574219 0c0 27.671875-22.511719 50.183593-50.183594 50.183593s-50.183594-22.511718-50.183594-50.183593c0-27.667969 22.511719-50.179688 50.183594-50.179688s50.183594 22.511719 50.183594 50.179688zm0 0"/><path d="m406.550781 271.277344c-36.054687 0-65.390625 29.335937-65.390625 65.390625 0 36.058593 29.335938 65.394531 65.390625 65.394531 36.054688 0 65.390625-29.335938 65.390625-65.394531 0-36.054688-29.335937-65.390625-65.390625-65.390625zm0 115.578125c-27.671875 0-50.183593-22.511719-50.183593-50.183594s22.511718-50.183594 50.183593-50.183594 50.183594 22.511719 50.183594 50.183594-22.511719 50.183594-50.183594 50.183594zm0 0"/><path d="m469.636719 210.304688c-.382813-.253907-9.707031-6.4375-41.503907-24.605469-19.164062-10.949219-34.304687-16.777344-47.652343-18.34375-15.949219-1.871094-29.847657 2.460937-41.375 12.875l-191.707031 6.070312c-4.195313.132813-7.492188 3.644531-7.359376 7.839844.136719 4.199219 3.640626 7.515625 7.839844 7.359375l153.238282-4.851562v39.964843l-224.703126-7.117187c-6.988281-.222656-12.464843-5.871094-12.464843-12.867188 0-6.992187 5.476562-12.640625 12.464843-12.863281l42.507813-1.347656c4.199219-.132813 7.492187-3.640625 7.359375-7.839844-.132812-4.195313-3.605469-7.515625-7.839844-7.359375l-42.507812 1.347656c-15.246094.480469-27.191406 12.808594-27.191406 28.066406 0 15.253907 11.945312 27.582032 27.191406 28.066407l263.183594 8.335937c9.785156 8.835938 21.277343 13.296875 34.28125 13.296875 2.3125 0 4.675781-.140625 7.082031-.425781 13.347656-1.5625 28.492187-7.394531 47.652343-18.34375 31.796876-18.167969 41.125-24.347656 41.503907-24.601562 2.117187-1.410157 3.386719-3.785157 3.386719-6.328126 0-2.542968-1.269532-4.917968-3.386719-6.328124zm-135 27.371093-18.308594-.582031v-40.929688l18.308594-.578124zm85.953125-3.316406c-34 19.425781-54.804688 21.816406-70.742188 7.859375v-51.175781c15.9375-13.957031 36.742188-11.566407 70.742188 7.859375 14.320312 8.1875 24.042968 13.917968 30.375 17.726562-6.332032 3.8125-16.054688 9.542969-30.375 17.730469zm0 0"/></svg>