<?xml version="1.0" encoding="iso-8859-1"?>
<!-- Generator: Adobe Illustrator 19.0.0, SVG Export Plug-In . SVG Version: 6.00 Build 0)  -->
<svg version="1.1" id="Layer_1" xmlns="http://www.w3.org/2000/svg" xmlns:xlink="http://www.w3.org/1999/xlink" x="0px" y="0px"
	 viewBox="0 0 512.001 512.001" style="enable-background:new 0 0 512.001 512.001;" xml:space="preserve">
<g>
	<g>
		<path d="M256.336,126.955c-34.325,0-62.249,27.825-62.249,62.025c0,34.201,27.925,62.026,62.249,62.026s62.25-27.825,62.25-62.026
			C318.587,154.78,290.661,126.955,256.336,126.955z M256.336,235.333c-25.682,0-46.575-20.793-46.575-46.353
			c0-25.559,20.894-46.352,46.575-46.352c25.682,0,46.576,20.793,46.576,46.352C302.913,214.539,282.018,235.333,256.336,235.333z"
			/>
	</g>
</g>
<g>
	<g>
		<path d="M256.336,77.96c-61.452,0-111.446,49.803-111.446,111.02c0,58.479,45.623,106.538,103.272,110.722v71.454
			c0,4.328,3.508,7.837,7.837,7.837s7.837-3.509,7.837-7.837v-71.411c57.967-3.857,103.945-52.058,103.945-110.763
			C367.783,127.764,317.787,77.96,256.336,77.96z M256.336,284.328c-52.809,0-95.772-42.772-95.772-95.347
			c0-52.575,42.963-95.347,95.772-95.347s95.772,42.773,95.772,95.347C352.109,241.555,309.145,284.328,256.336,284.328z"/>
	</g>
</g>
<g>
	<g>
		<path d="M389.789,54.989C353.993,19.529,306.486,0,256.018,0l-0.972,0.002c-50.671,0.254-98.212,20.145-133.865,56.011
			C85.519,91.887,66.019,139.447,66.274,189.93c0.192,38.054,11.685,74.679,33.24,105.928l121.4,195.394l0.016-0.008
			c7.588,12.807,21.55,20.757,36.485,20.758h0.214c15.05-0.076,29.036-8.194,36.528-21.197l119.214-196.249
			c21.358-31.526,32.545-68.356,32.355-106.522C445.471,137.718,425.605,90.468,389.789,54.989z M400.291,285.915l-0.111,0.164
			L280.71,482.747l-0.102,0.173c-4.709,8.221-13.546,13.358-23.059,13.406h-0.135c-9.461,0-18.298-5.049-23.077-13.2l-0.089-0.15
			l-0.103,0.052l0.079-0.049L112.726,287.424l-0.21-0.321c-19.823-28.675-30.393-62.304-30.568-97.253
			c-0.234-46.285,17.647-89.893,50.349-122.788c32.711-32.905,76.332-51.155,122.828-51.387l0.893-0.002
			c46.31,0,89.9,17.917,122.741,50.45c32.844,32.536,51.06,75.859,51.293,121.989C430.227,223.164,419.937,256.983,400.291,285.915z
			"/>
	</g>
</g>
<g>
</g>
<g>
</g>
<g>
</g>
<g>
</g>
<g>
</g>
<g>
</g>
<g>
</g>
<g>
</g>
<g>
</g>
<g>
</g>
<g>
</g>
<g>
</g>
<g>
</g>
<g>
</g>
<g>
</g>
</svg>
