<svg height="682pt" viewBox="-89 -21 682 682.66669" width="682pt" xmlns="http://www.w3.org/2000/svg"><path d="m82.6875 102.703125v-15.609375c0-5.179688-4.199219-9.375-9.375-9.375-5.179688 0-9.375 4.195312-9.375 9.375v15.609375c0 5.183594 4.195312 9.375 9.375 9.375 5.175781 0 9.375-4.191406 9.375-9.375zm0 0"/><path d="m255.246094 102.703125v-15.609375c0-5.179688-4.191406-9.375-9.375-9.375-5.175782 0-9.375 4.195312-9.375 9.375v15.609375c0 5.183594 4.199218 9.375 9.375 9.375 5.183594 0 9.375-4.191406 9.375-9.375zm0 0"/><path d="m159.59375 120.421875c11.003906 0 21.335938-4.605469 28.355469-12.628906 3.40625-3.902344 3.007812-9.824219-.890625-13.230469-3.902344-3.40625-9.820313-3.007812-13.226563.886719-3.457031 3.949219-8.644531 6.214843-14.238281 6.214843-5.597656 0-10.78125-2.265624-14.238281-6.214843-3.402344-3.894531-9.328125-4.296875-13.226563-.886719-3.898437 3.40625-4.296875 9.328125-.890625 13.230469 7.015625 8.023437 17.347657 12.628906 28.355469 12.628906zm0 0"/><path d="m122.410156 325.765625c0 25.085937 20.40625 45.484375 45.484375 45.484375s45.476563-20.398438 45.476563-45.484375c0-25.078125-20.398438-45.476563-45.476563-45.476563s-45.484375 20.398438-45.484375 45.476563zm72.210938 0c0 14.742187-11.984375 26.734375-26.726563 26.734375-14.742187 0-26.734375-11.992188-26.734375-26.734375 0-14.734375 11.992188-26.726563 26.734375-26.726563 14.742188 0 26.726563 11.992188 26.726563 26.726563zm0 0"/><path d="m500.148438 600.078125v-413.90625c0-2.460937-1.015626-4.882813-2.746094-6.632813 0 0-176.792969-176.789062-176.796875-176.796874-1.738281-1.734376-4.167969-2.742188-6.628907-2.742188h-278.222656c-22.011718 0-39.921875 17.910156-39.921875 39.921875v560.15625c0 22.011719 17.910157 39.921875 39.921875 39.921875h61.648438c5.175781 0 9.375-4.199219 9.375-9.375s-4.199219-9.375-9.375-9.375h-61.648438c-11.671875 0-21.171875-9.496094-21.171875-21.171875v-560.15625c0-11.675781 9.5-21.171875 21.171875-21.171875h268.847656v147.027344c0 16.414062 13.355469 29.769531 29.773438 29.769531h147.023438v404.53125c0 11.675781-9.496094 21.171875-21.171876 21.171875h-325.703124c-5.175782 0-9.375 4.195312-9.375 9.375 0 5.175781 4.199218 9.375 9.375 9.375h325.703124c22.011719 0 39.921876-17.910156 39.921876-39.921875zm-176.796876-568.070313 144.792969 144.789063h-133.769531c-6.082031 0-11.023438-4.945313-11.023438-11.019531zm0 0"/><path d="m45.632812 238.886719v341.9375c0 5.105469 4.269532 9.375 9.378907 9.375h385.957031c5.183594 0 9.375-4.199219 9.375-9.375v-341.9375c0-5.179688-4.191406-9.375-9.375-9.375h-88.710938c-5.179687 0-9.375 4.195312-9.375 9.375 0 5.175781 4.195313 9.375 9.375 9.375h79.335938v156.289062l-8.757812-8.441406c-15.839844-15.28125-36.679688-23.6875-58.6875-23.6875-17.371094 0-34.085938 5.25-48.34375 15.1875l-71.40625 49.773437-6.699219-6.464843c-15.640625-15.066407-36.957031-23.691407-58.683594-23.691407-17.207031 0-34.230469 5.359376-48.351563 15.195313l-66.277343 46.203125v-220.363281h250.417969c5.175781 0 9.375-4.199219 9.375-9.375 0-5.179688-4.199219-9.375-9.375-9.375h-259.796876c-5.175781 0-9.375 4.195312-9.375 9.375zm39.222657 332.5625 241.671875-168.460938c11.09375-7.730469 24.105468-11.816406 37.625-11.816406 17.125 0 33.339844 6.546875 45.671875 18.433594l21.769531 20.996093v140.847657zm74.453125-142.386719c6.367187-2 13.0625-3.085938 19.707031-3.085938 19.792969 0 35.820313 8.9375 49.707031 22.335938-28.382812 19.804688-164.335937 114.078125-164.335937 114.546875v-71.378906s76.984375-53.667969 76.992187-53.675781c5.378906-3.746094 11.484375-6.714844 17.929688-8.742188zm0 0"/></svg>