<svg height="682pt" viewBox="-21 -75 682.66669 682" width="682pt" xmlns="http://www.w3.org/2000/svg"><path d="m538.257812 357.058594v-299.375c0-5.179688-4.199218-9.375-9.375-9.375h-301.617187c-5.179687 0-9.375 4.195312-9.375 9.375 0 5.175781 4.195313 9.375 9.375 9.375h292.242187v280.625h-399.015624v-280.625h69.273437c5.175781 0 9.375-4.199219 9.375-9.375 0-5.179688-4.199219-9.375-9.375-9.375h-78.648437c-5.175782 0-9.375 4.195312-9.375 9.375v299.375c0 5.179687 4.199218 9.375 9.375 9.375h417.765624c5.175782 0 9.375-4.195313 9.375-9.375zm0 0"/><path d="m219.082031 221.003906c5.175781 0 9.375-4.199218 9.375-9.375v-18.265625c0-5.175781-4.199219-9.375-9.375-9.375-5.179687 0-9.375 4.199219-9.375 9.375v18.265625c0 5.175782 4.195313 9.375 9.375 9.375zm0 0"/><path d="m430.292969 211.628906v-18.265625c0-5.175781-4.195313-9.375-9.375-9.375-5.175781 0-9.375 4.199219-9.375 9.375v18.265625c0 5.175782 4.199219 9.375 9.375 9.375 5.179687 0 9.375-4.199218 9.375-9.375zm0 0"/><path d="m320 230.75c12.414062 0 24.066406-5.179688 31.96875-14.222656 3.40625-3.898438 3.007812-9.820313-.890625-13.230469-3.898437-3.40625-9.820313-3.007813-13.226563.890625-4.339843 4.964844-10.851562 7.8125-17.851562 7.8125s-13.511719-2.847656-17.851562-7.8125c-3.40625-3.902344-9.328126-4.296875-13.226563-.890625-3.898437 3.410156-4.296875 9.332031-.890625 13.230469 7.902344 9.042968 19.554688 14.222656 31.96875 14.222656zm0 0"/><path d="m326.828125 31.902344c0 3.769531-3.058594 6.824218-6.828125 6.824218s-6.828125-3.054687-6.828125-6.824218c0-3.769532 3.058594-6.828125 6.828125-6.828125s6.828125 3.058593 6.828125 6.828125zm0 0"/><path d="m81.601562 529.65625h476.796876c44.996093 0 81.601562-36.605469 81.601562-81.605469v-16.597656c0-17.765625-14.453125-32.210937-32.21875-32.210937h-17.96875v-356.753907c0-25.21875-20.515625-45.738281-45.734375-45.738281h-448.15625c-25.21875 0-45.734375 20.519531-45.734375 45.738281v356.753907h-17.96875c-17.765625 0-32.21875 14.453124-32.21875 32.214843v16.597657c0 44.996093 36.605469 81.601562 81.601562 81.601562zm-62.851562-98.199219c0-7.425781 6.039062-13.464843 13.46875-13.464843h192.046875v13.683593c0 23.238281 18.90625 42.144531 42.144531 42.144531h107.179688c23.238281 0 42.144531-18.90625 42.144531-42.144531v-13.683593h59.03125c5.175781 0 9.375-4.199219 9.375-9.375 0-5.175782-4.199219-9.375-9.375-9.375h-405.828125v-356.753907c0-14.878906 12.109375-26.988281 26.984375-26.988281h448.15625c14.875 0 26.984375 12.109375 26.984375 26.988281v356.753907h-58.796875c-5.179687 0-9.375 4.199218-9.375 9.375 0 5.175781 4.195313 9.375 9.375 9.375h95.515625c7.429688 0 13.46875 6.039062 13.46875 13.464843v16.597657c0 34.65625-28.199219 62.851562-62.851562 62.851562h-476.796876c-34.652343 0-62.851562-28.199219-62.851562-62.855469zm378.234375-13.464843v13.683593c0 12.902344-10.5 23.394531-23.394531 23.394531h-107.179688c-12.898437 0-23.394531-10.492187-23.394531-23.394531v-13.683593zm0 0"/></svg>