<?xml version="1.0" encoding="UTF-8" standalone="no"?>
<!DOCTYPE svg PUBLIC "-//W3C//DTD SVG 1.1//EN" "http://www.w3.org/Graphics/SVG/1.1/DTD/svg11.dtd">
<svg version="1.1" xmlns="http://www.w3.org/2000/svg" xmlns:xlink="http://www.w3.org/1999/xlink" preserveAspectRatio="xMidYMid meet" viewBox="0 0 640 640" width="640" height="640"><defs><path d="M487.65 329.29C487.65 333.66 483.78 337.28 479.11 337.28C475.81 337.28 449.43 337.28 446.13 337.28C441.46 337.28 437.58 333.66 437.58 329.29C437.58 328.79 437.58 326.32 437.58 321.85L326.23 348.81L218.55 322.78C218.55 326.69 218.55 328.86 218.55 329.29C218.55 333.66 214.68 337.28 210.01 337.28C206.71 337.28 180.33 337.28 177.03 337.28C172.36 337.28 168.49 333.66 168.49 329.29C168.49 328.05 168.49 321.85 168.49 310.7L88.13 290.71C88.13 385.14 88.13 437.6 88.13 448.1C88.13 470.78 108.39 490.3 135.51 490.3C173.64 490.3 478.72 490.3 516.85 490.3C543.97 490.3 563.94 470.69 563.94 448.1C563.94 437.6 563.94 385.14 563.94 290.71L487.65 309.77C487.65 321.48 487.65 327.99 487.65 329.29Z" id="d74NYXBRwj"></path><path d="M135.61 512.43C108.49 512.43 88.33 502.2 88.33 479.52C88.33 481.91 88.33 501.02 88.33 503.41C88.33 526.09 108.59 543.1 135.71 543.1C173.84 543.1 478.92 543.1 517.05 543.1C544.17 543.1 564.14 526 564.14 503.32C564.14 500.93 564.14 481.81 564.14 479.42C564.14 502.11 543.97 512.43 516.95 512.43C440.68 512.43 173.74 512.43 135.61 512.43Z" id="c4vUnE3VP"></path><path d="M124.19 178.23C95.48 178.23 72.04 197.84 72.04 221.92C72.04 224.83 72.04 239.39 72.04 265.61L168.69 289.04C168.69 282.4 168.69 278.71 168.69 277.97C168.69 273.61 172.56 269.98 177.23 269.98C180.53 269.98 206.91 269.98 210.21 269.98C214.88 269.98 218.75 273.61 218.75 277.97C218.75 279.52 218.75 287.23 218.75 301.12L326.43 327.15L437.88 300.19C437.88 286.86 437.88 279.46 437.88 277.97C437.88 273.61 441.76 269.98 446.43 269.98C449.72 269.98 476.11 269.98 479.4 269.98C484.07 269.98 487.95 273.61 487.95 277.97C487.95 278.65 487.95 282.03 487.95 288.11L580.82 265.61C580.82 239.39 580.82 224.83 580.82 221.92C580.53 197.84 556.98 178.23 528.28 178.23C447.46 178.23 164.59 178.23 124.19 178.23Z" id="amWhGE8XE"></path><path d="M227.59 143.74C227.59 126.45 242.69 112.22 261.27 112.22C274.25 112.22 378.11 112.22 391.1 112.22C409.57 112.22 424.77 126.35 424.77 143.74C424.77 145.01 424.77 151.4 424.77 162.89L459.24 162.89C459.24 144.31 459.24 133.99 459.24 131.93C459.24 106.74 438.38 86.66 411.46 86.66C394.44 86.66 258.32 86.66 241.3 86.66C214.38 86.66 193.12 106.55 193.12 131.74C193.12 133.81 193.12 144.13 193.12 162.7L227.59 162.89C227.59 151.4 227.59 145.01 227.59 143.74Z" id="b6AI2rJaH"></path></defs><g visibility="inherit"><g visibility="inherit"><g visibility="inherit"><use xlink:href="#d74NYXBRwj" opacity="1" fill="#fde2c2" fill-opacity="1"></use><g><use xlink:href="#d74NYXBRwj" opacity="1" fill-opacity="0" stroke="#000000" stroke-width="1" stroke-opacity="0"></use></g></g><g visibility="inherit"><use xlink:href="#c4vUnE3VP" opacity="1" fill="#fde2c2" fill-opacity="1"></use><g><use xlink:href="#c4vUnE3VP" opacity="1" fill-opacity="0" stroke="#000000" stroke-width="1" stroke-opacity="0"></use></g></g><g visibility="inherit"><use xlink:href="#amWhGE8XE" opacity="1" fill="#fde2c2" fill-opacity="1"></use><g><use xlink:href="#amWhGE8XE" opacity="1" fill-opacity="0" stroke="#000000" stroke-width="1" stroke-opacity="0"></use></g></g><g visibility="inherit"><use xlink:href="#b6AI2rJaH" opacity="1" fill="#fde2c2" fill-opacity="1"></use><g><use xlink:href="#b6AI2rJaH" opacity="1" fill-opacity="0" stroke="#000000" stroke-width="1" stroke-opacity="0"></use></g></g></g></g></svg>